<?xml version="1.0" encoding="iso-8859-1"?>
<!-- Generator: Adobe Illustrator 19.0.0, SVG Export Plug-In . SVG Version: 6.00 Build 0)  -->
<svg version="1.1" id="Capa_1" xmlns="http://www.w3.org/2000/svg" xmlns:xlink="http://www.w3.org/1999/xlink"
	 x="0px" y="0px" height="30px" width="30px"
	 viewBox="0 0 512 512" style="enable-background:new 0 0 512 512;" xml:space="preserve">
<g>
	<g>
		<path d="M450.948,295c-0.156-0.156-18.248-18.257-18.368-18.379c-2.941-2.941-7.709-2.941-10.65,0
			c-2.941,2.941-2.941,7.709,0,10.64l18.097,18.108c3.142,3.393,4.868,7.809,4.868,12.446v8.331c0,4.517-3.674,8.191-8.191,8.191
			c-13.218,0-142.237,0-164.717,0c7.612-12.362,6.074-28.809-4.634-39.517l-74.598-74.598h110.412l29.651,52.395
			c6.631,11.7,23.46,11.703,30.092,0l16.04-28.336l21.691,21.691c1.466,1.476,3.393,2.208,5.32,2.208s3.854-0.733,5.32-2.208
			c2.941-2.941,2.941-7.709,0-10.65l-24.642-24.642c11.94-19.756,12.402-25.298,20.356-30.444
			c58.192-37.719,67.021-119.826,17.284-168.87c-42.566-41.973-110.774-41.875-153.262,0.612
			c-20.205,20.195-31.558,46.935-31.969,75.281c-0.542,37.701,18.037,72.47,49.705,92.987c2.088,1.355,3.955,3.021,5.501,4.918
			c-37.387,0-114.715,0-129.885,0c-1.582,0.04-2.308-0.11-3.665,0.212c-8.27,0.927-15.594,5.169-19.592,9.765L61.435,294.82
			c-12.517,12.517-12.517,32.883,0,45.389c4.738,4.738,10.589,7.679,16.712,8.823v130.216c0,18.057,14.685,32.752,32.732,32.752
			c13.152,0,279.327,0,290.253,0c18.047,0,32.742-14.695,32.742-32.742V349.393h2.831c12.818,0,23.247-10.429,23.247-23.247v-8.331
			C459.952,309.314,456.76,301.204,450.948,295z M254.104,107.481c0.723-50.247,42.177-91.682,92.425-92.385
			c23.975-0.533,48.581,8.644,67.181,26.991c42.892,42.318,35.201,113.034-14.906,145.513c-5.24,3.403-9.606,8.01-12.617,13.34
			c-25.074,44.294,18.229-32.217-36.376,64.26c-0.87,1.523-3.035,1.513-3.884,0c-39.991-70.64-38.74-70.945-48.983-77.589
			C269.652,169.924,253.632,139.972,254.104,107.481z M243.856,496.944h-29.563V355.667c0-11.745-9.556-21.301-21.301-21.301H143.19
			c-11.746,0-21.302,9.557-21.302,21.301v77.85c0,4.159,3.371,7.528,7.528,7.528c4.157,0,7.528-3.37,7.528-7.528v-77.85
			c0-3.444,2.801-6.245,6.245-6.245h49.801c3.444,0,6.245,2.801,6.245,6.245v141.277h-62.291V463.63
			c0-4.159-3.371-7.528-7.528-7.528c-4.158,0-7.528,3.37-7.528,7.528v33.314H110.88c-9.746,0-17.676-7.94-17.676-17.696V348.299
			c13.552-3.954,13.624-9.829,71.186-65.645l57.565,57.555c6.063,6.063,13.952,9.184,21.902,9.375V496.944z M243.856,334.528
			c-4.095-0.191-8.13-1.837-11.252-4.958c-65.927-64.808-62.48-65.093-68.214-65.093c-1.987,0-3.905,0.793-5.32,2.198
			c-65.662,65.469-62.933,63.465-65.866,65.263c-4.537,2.861-10.138,3.373-15.056,1.526c-2.208-0.823-4.286-2.118-6.063-3.895
			c-6.655-6.645-6.655-17.465,0-24.11c49.873-49.873,79.843-79.843,79.958-79.958c3.018-3.272,7.463-5.28,12.336-5.28
			c0.209,0.041,6.654-0.388,11.985,4.858c0.805,0.867,56.319,56.35,80.34,80.38c5.802,5.802,6.534,14.785,2.208,21.39
			C255.752,331.742,250.056,334.824,243.856,334.528z M401.133,496.944H259.243v-147.55h159.575v129.864h0
			C418.819,489.004,410.879,496.944,401.133,496.944z"/>
	</g>
</g>
<g>
	<g>
		<path d="M341.755,366.812h-4.479c-28.155,0-51.062,22.905-51.062,51.06c0,28.156,22.906,51.062,51.062,51.062h4.479
			c28.155,0,51.061-22.905,51.061-51.062C392.817,389.718,369.911,366.812,341.755,366.812z M302.068,425.399
			c0.123,0,29.788,0.002,29.92,0.002c0.154,26.712-0.341,25.941,0.432,28.141C317.346,451.499,305.208,440.101,302.068,425.399z
			 M331.988,410.345c-0.133,0-29.796,0.002-29.92,0.002c3.141-14.701,15.278-26.098,30.351-28.142
			C331.622,384.473,332.136,384.418,331.988,410.345z M346.612,453.542c0.796-2.263,0.282-2.06,0.432-28.141
			c0.133,0,29.796-0.002,29.919-0.002C373.823,440.1,361.685,451.498,346.612,453.542z M347.045,410.345
			c-0.154-26.734,0.342-25.939-0.432-28.14c15.072,2.044,27.211,13.441,30.35,28.142
			C376.841,410.347,347.177,410.345,347.045,410.345z"/>
	</g>
</g>
<g>
	<g>
		<circle cx="181.136" cy="421.693" r="8.146"/>
	</g>
</g>
<g>
	<g>
		<path d="M389.855,113.421c-23.152-23.151-60.824-23.151-83.978,0c-5.074,5.074-1.41,13.708,5.678,13.708
			c2.055,0,4.11-0.784,5.678-2.352c16.892-16.891,44.376-16.891,61.267,0c3.136,3.135,8.22,3.135,11.355,0
			C392.991,121.641,392.991,116.557,389.855,113.421z"/>
	</g>
</g>
<g>
	<g>
		<path d="M375.291,131.729c-15.122-15.12-39.728-15.12-54.852,0c-3.136,3.136-3.137,8.22,0,11.355
			c3.136,3.137,8.22,3.137,11.355,0.001c8.863-8.86,23.28-8.86,32.141,0c3.137,3.136,8.22,3.136,11.355-0.001
			C378.428,139.949,378.428,134.865,375.291,131.729z"/>
	</g>
</g>
<g>
	<g>
		<path d="M404.247,99.659c-14.705-16.649-34.406-26.178-55.474-26.83c-21.182-0.653-41.386,7.553-56.946,23.112
			c-3.137,3.136-3.137,8.22,0,11.356c3.137,3.136,8.221,3.136,11.355,0c12.393-12.393,28.405-18.932,45.093-18.417
			c16.591,0.514,32.194,8.117,43.935,21.41c2.922,3.307,7.995,3.653,11.334,0.703C406.869,108.057,407.183,102.983,404.247,99.659z"
			/>
	</g>
</g>
<g>
	<g>
		<path d="M347.799,23.63c-47.107,0-85.417,38.238-85.417,85.553c0,29.761,15.873,57.813,41.429,73.204
			c3.797,2.29,8.732,1.065,11.021-2.734c2.288-3.799,1.064-8.734-2.736-11.021c-21.668-13.052-34.998-37.451-33.544-63.371
			c2.128-38.254,34.842-67.593,73.17-65.461c36.768,2.046,65.57,32.463,65.57,69.247c0,42.597-37.817,75.12-79.991,68.688
			c-4.387-0.674-8.481,2.343-9.149,6.726c-0.669,4.384,2.342,8.481,6.726,9.149c51.821,7.906,98.474-32.082,98.474-84.563
			C433.351,61.941,395.112,23.63,347.799,23.63z"/>
	</g>
</g>
<g>
</g>
<g>
</g>
<g>
</g>
<g>
</g>
<g>
</g>
<g>
</g>
<g>
</g>
<g>
</g>
<g>
</g>
<g>
</g>
<g>
</g>
<g>
</g>
<g>
</g>
<g>
</g>
<g>
</g>
</svg>
